<svg width="1022" height="209" viewBox="0 0 1022 209" fill="none" xmlns="http://www.w3.org/2000/svg">
<path fill-rule="evenodd" clip-rule="evenodd" d="M502.401 1.47044C499.651 2.22944 494.775 3.15144 491.566 3.51944C487.981 3.93144 485.524 4.73044 485.193 5.59344C484.479 7.45344 485.158 8.01244 489.1 8.81444C491.715 9.34644 492.649 10.2054 493.595 12.9484C494.97 16.9374 495.336 38.9114 494.028 38.9114C493.548 38.9114 490.988 37.9524 488.34 36.7814C484.304 34.9964 482.27 34.7374 475.77 35.1834C466.21 35.8384 460.15 38.6424 454.766 44.9024C447.12 53.7944 445.185 64.1454 448.914 76.2174C450.601 81.6784 451.812 83.5434 456.391 87.7284C461.259 92.1774 462.596 92.8464 468.629 93.8524C476.398 95.1474 483.512 94.1715 489.844 90.9405C492.031 89.8245 494.064 88.9114 494.361 88.9114C494.658 88.9114 494.901 90.4864 494.901 92.4114C494.901 96.1654 496.297 96.8404 499.984 94.8664C501.058 94.2924 505.861 93.0544 510.658 92.1164C517.189 90.8394 519.461 89.9875 519.702 88.7225C519.958 87.3825 519.13 86.9685 515.713 86.7225L511.401 86.4114L510.75 80.9114C510.392 77.8864 510.054 58.4244 510 37.6614C509.923 8.12944 509.629 -0.0695566 508.651 0.000443445C507.964 0.0504434 505.151 0.711441 502.401 1.47044ZM249.027 7.17644C247.722 10.6054 245.172 17.2364 243.362 21.9114C241.551 26.5864 237.799 36.4864 235.024 43.9114C221.753 79.4144 219.676 84.5224 217.89 86.0424C216.836 86.9394 213.972 87.9734 211.526 88.3404C207.57 88.9334 205.901 90.2535 205.901 92.7875C205.901 93.1785 213.776 93.4834 223.401 93.4644C240.748 93.4294 240.901 93.4095 240.901 91.2315C240.901 89.3905 240.164 88.9234 236.351 88.3514C231.684 87.6514 228.901 85.8074 228.901 83.4154C228.901 82.6704 230.529 77.5274 232.52 71.9864L236.138 61.9114H249.882H263.626L267.827 72.4604C270.138 78.2624 271.884 83.7744 271.706 84.7104C271.509 85.7494 269.636 86.9205 266.892 87.7205C261.087 89.4115 259.463 90.3104 259.126 92.0184C258.897 93.1764 262.828 93.4215 282.376 93.4725C298.346 93.5145 305.896 93.1935 305.886 92.4725C305.853 90.2275 304.204 89.0165 299.597 87.8565C293.901 86.4225 294.58 87.5714 284.564 62.4114C276.007 40.9154 261.453 5.81144 259.876 2.86544C259.124 1.46044 257.788 0.915442 255.116 0.926442C251.484 0.940442 251.348 1.08044 249.027 7.17644ZM606.901 3.43844C604.426 4.76644 599.814 6.37444 596.651 7.01244C592.13 7.92344 590.901 8.56844 590.901 10.0294C590.901 11.4304 591.905 12.0484 594.979 12.5394C598.052 13.0314 599.284 13.7894 599.979 15.6164C600.486 16.9504 600.901 33.2264 600.901 51.7854C600.901 89.2884 600.999 88.7224 594.33 89.8064C591.743 90.2274 590.31 91.0284 590.088 92.1764C589.781 93.7724 591.239 93.9114 608.328 93.9114C625.804 93.9114 626.901 93.8015 626.901 92.0415C626.901 90.5615 625.944 90.0634 622.314 89.6544C619.791 89.3704 617.333 88.7434 616.852 88.2624C616.371 87.7814 615.848 68.0434 615.689 44.3994C615.407 2.24844 615.362 1.40744 613.401 1.21744C612.301 1.11144 609.376 2.11044 606.901 3.43844ZM73.6578 2.89144C62.8768 4.82844 48.4668 10.7644 38.9008 17.2094C30.9858 22.5414 17.4908 36.9874 12.5668 45.3984C-14.4182 91.4974 3.64579 150.442 51.5398 172.57C64.6208 178.614 70.8898 180.062 86.4008 180.622C98.3318 181.052 101.698 180.817 109.175 179.032C136.884 172.416 157.849 155.786 170.765 130.176C176.877 118.056 180.732 97.9804 179.444 84.9754C176.193 52.1434 157.998 25.3544 129.14 10.9114C116.917 4.79344 107.821 2.70044 91.9008 2.34244C84.4758 2.17544 76.2668 2.42244 73.6578 2.89144ZM698.106 5.41144C698.395 8.35144 698.524 8.41744 704.566 8.70744C708.108 8.87644 711.196 9.56244 711.824 10.3184C712.576 11.2244 712.992 27.8734 713.159 63.7434L713.401 115.852L711.216 118.039C709.127 120.129 708.917 120.152 706.466 118.545C705.055 117.621 703.901 116.46 703.901 115.965C703.901 115.47 702.516 113.68 700.824 111.988C694.826 105.989 686.899 109.296 686.902 117.796C686.904 122.216 690.001 126.11 694.923 127.881C702.083 130.457 714.8 125.537 721.545 117.581C723.024 115.838 725.705 111.241 727.503 107.365C732.46 96.6834 733.312 85.7994 732.481 43.7914L731.795 9.17244L734.098 8.55544C735.365 8.21644 738.343 7.93244 740.717 7.92544C744.793 7.91244 745.016 7.76444 744.717 5.27144L744.401 2.63044L721.106 2.52144L697.811 2.41144L698.106 5.41144ZM107.691 8.90344C124.888 12.5334 142.726 23.1944 154.089 36.6344C167.373 52.3454 173.901 70.5654 173.901 91.9344C173.901 114.398 166.462 133.013 151.021 149.186C134.655 166.329 116.842 174.503 93.4008 175.628C58.8068 177.289 28.3038 158.858 13.1858 127.161C10.7588 122.073 8.21779 117.911 7.53879 117.911C6.16279 117.911 5.49979 107.978 5.63679 89.4114C5.83279 62.7754 18.6128 38.3284 40.5978 22.5334C59.2128 9.16044 84.5358 4.01644 107.691 8.90344ZM251.787 31.1614C256.269 42.1574 259.901 52.1424 259.901 53.4704C259.901 54.7624 258.365 54.9824 250.381 54.8334C245.145 54.7364 240.609 54.2484 240.302 53.7504C239.994 53.2524 241.607 47.7974 243.887 41.6284C246.167 35.4594 248.213 29.8494 248.435 29.1614C249.127 27.0164 250.41 27.7814 251.787 31.1614ZM52.9008 30.2834C52.9008 31.0384 49.5858 39.2504 45.5338 48.5334C41.4828 57.8164 34.0648 74.8614 29.0498 86.4114C17.2188 113.659 18.0838 112.175 13.1218 113.756C10.7998 114.496 8.89979 115.396 8.89879 115.756C8.89779 116.116 14.8608 116.239 22.1488 116.028C32.9918 115.715 34.8068 115.461 32.1318 114.628C27.2458 113.108 27.0398 110.268 31.1138 100.608L34.5708 92.4114L46.9858 92.1964C53.8138 92.0784 60.3558 92.1854 61.5238 92.4334C64.4958 93.0664 70.7968 110.127 68.9008 112.411C68.2158 113.236 67.0628 113.911 66.3378 113.911C65.6118 113.911 64.7408 114.361 64.4008 114.911C63.9958 115.566 70.4488 115.876 83.0918 115.809C98.3018 115.728 101.693 115.48 99.0648 114.64C92.4208 112.514 91.1198 110.103 63.7468 49.1614C55.5138 30.8324 52.9008 26.2844 52.9008 30.2834ZM899.18 34.8124C896.344 37.3784 892.981 39.1864 888.93 40.3234C885.614 41.2534 882.901 42.5804 882.901 43.2704C882.901 43.9614 884.658 45.3014 886.806 46.2494C888.953 47.1964 890.998 48.7214 891.349 49.6374C892.561 52.7954 893.168 83.2984 892.074 86.0634C891.264 88.1124 890.103 88.8704 886.963 89.4004C883.848 89.9274 882.901 90.5385 882.901 92.0245C882.901 93.8715 883.649 93.9484 899.069 93.6864C916.742 93.3854 919.034 92.5504 912.011 88.9674L907.99 86.9165L907.696 69.1634C907.409 51.8934 907.463 51.3414 909.684 48.8224C912.684 45.4204 919.822 41.9114 923.745 41.9114C925.783 41.9114 928.005 42.9254 930.135 44.8274L933.401 47.7434L933.73 67.5334C934.029 85.5374 933.899 87.4394 932.289 88.6174C931.315 89.3294 929.255 89.9114 927.71 89.9114C925.568 89.9114 924.901 90.3864 924.901 91.9114C924.901 93.8314 925.568 93.9114 941.474 93.9114C956.381 93.9114 958.015 93.7444 957.724 92.2514C957.537 91.2894 955.718 90.1195 953.401 89.4705L949.401 88.3514L948.901 67.3814C948.347 44.1664 947.87 42.1484 942 38.1964C932.97 32.1184 921.057 33.3514 910.418 41.4664L906.901 44.1484V37.5304C906.901 29.4884 905.579 29.0224 899.18 34.8124ZM104.145 33.2844C109.131 34.8344 110.731 37.4164 111.096 44.5024C111.371 49.8294 111.623 50.4234 113.651 50.5364C117.669 50.7594 117.901 50.8864 117.901 52.8484C117.901 54.3024 117.091 54.8624 114.651 55.0984L111.401 55.4114L110.901 83.6134C110.535 104.275 110.067 112.148 109.151 113.063C108.464 113.749 107.901 114.671 107.901 115.111C107.901 115.551 121.288 115.911 137.651 115.91H167.401L169.824 105.16C171.157 99.2484 172.443 93.8494 172.681 93.1614C172.92 92.4744 172.729 91.9234 172.258 91.9374C171.787 91.9514 170.547 93.8634 169.504 96.1874C168.461 98.5104 165.664 102.288 163.287 104.582C157.97 109.715 152.234 111.192 139.401 110.733L130.401 110.411L130.103 75.4114C129.771 36.3614 129.945 35.1584 136.245 33.1314C138.608 32.3704 134.502 32.1164 119.901 32.1184C103.593 32.1204 101.014 32.3114 104.145 33.2844ZM391.901 35.5184C382.127 39.0524 375.752 45.5024 372.875 54.7664C370.477 62.4864 370.404 66.5084 372.522 74.0574C377.315 91.1404 397.727 100.006 417.034 93.3904C423.493 91.1774 429.281 85.8734 432.59 79.1354C435.006 74.2164 435.4 72.2164 435.391 64.9114C435.384 58.4114 434.888 55.3404 433.286 51.8604C428.022 40.4314 418.839 34.7024 404.982 34.2014C398.903 33.9814 395.089 34.3654 391.901 35.5184ZM546.761 35.4794C541.169 37.2004 532.686 44.5294 529.606 50.2984C527.748 53.7804 527.41 56.0214 527.406 64.9114C527.402 74.1344 527.704 76.0044 529.892 80.2884C539.195 98.5054 565.585 101.136 581.309 85.4134C584.419 82.3024 584.425 82.2624 581.919 80.9204C580.358 80.0854 578.876 80.3974 574.952 82.3854C567.63 86.0964 558.93 85.9495 552.719 82.0115C545.989 77.7425 542.112 68.7654 542.804 59.0514C542.884 57.9264 546.446 57.8184 563.401 58.4234L583.901 59.1554V56.2294C583.901 51.7724 579.211 43.3254 574.794 39.8264C567.63 34.1534 556.617 32.4444 546.761 35.4794ZM653.895 34.7814C645.144 37.6684 636.93 45.4114 634.186 53.3594C631.451 61.2814 631.809 72.1394 635.03 78.9114C639.889 89.1264 647.296 94.3564 658.573 95.5354C668.737 96.5974 680.417 92.4554 686.845 85.5104C689.084 83.0904 689.155 82.7364 687.689 81.2714C686.224 79.8054 685.623 79.9004 680.504 82.4054C675.687 84.7614 673.971 85.0845 668.049 84.7505C662.394 84.4305 660.522 83.8594 657.456 81.5204C652.595 77.8134 650.429 74.1124 648.899 66.9004C646.842 57.2094 645.787 57.6404 669.539 58.4764L690.178 59.2034L689.454 55.3414C687.992 47.5504 682.626 40.3974 675.483 36.7174C671.181 34.5014 658.255 33.3424 653.895 34.7814ZM986.895 34.7874C979.139 37.3274 971.633 43.7024 967.754 51.0424C965.793 54.7524 965.442 56.9194 965.423 65.4114C965.402 74.9214 965.563 75.6914 968.697 81.1144C973.097 88.7254 978.139 92.5565 986.463 94.6105C997.575 97.3525 1009.75 94.3734 1018.37 86.8014C1022.38 83.2804 1022.65 82.3814 1020.08 81.0074C1018.73 80.2834 1016.89 80.6884 1012.94 82.5764C1008.47 84.7184 1006.55 85.0604 1000.82 84.7374C995.039 84.4104 993.44 83.8914 990.207 81.2924C984.711 76.8734 981.838 71.1704 981.599 64.2034L981.401 58.4114L1001.65 58.7634L1021.9 59.1154V55.9814C1021.9 48.9694 1017.06 41.8874 1009.02 37.1494C1005.54 35.0994 1003.06 34.5034 997.018 34.2654C992.829 34.1004 988.273 34.3354 986.895 34.7874ZM765.901 37.6394C762.876 39.0994 758.039 42.6534 755.151 45.5374C750.494 50.1884 749.901 51.2524 749.901 54.9544C749.901 58.8134 750.075 59.0844 752.207 58.5494C753.475 58.2314 756.621 57.0384 759.198 55.8984C762.701 54.3484 764.035 53.1414 764.48 51.1184C765.846 44.9104 766.719 43.3004 769.876 41.1614C771.888 39.7984 774.706 38.9114 777.026 38.9114C782.352 38.9114 784.114 41.8714 784.687 51.7824L785.133 59.4844L773.074 64.3014C759.289 69.8064 753.856 73.3784 751.404 78.5474C749.417 82.7344 749.895 88.1424 752.508 91.0294C758.219 97.3404 777.038 95.2914 783.46 87.6594C785.968 84.6774 786.157 84.6174 787.185 86.4654C787.78 87.5354 789.5 89.6494 791.007 91.1614C793.77 93.9344 798.302 94.7155 803.512 93.3175C805.676 92.7365 809.901 86.3314 809.901 83.6324C809.901 81.2164 807.021 80.7464 805.651 82.9394C804.172 85.3094 801.35 85.5234 800.508 83.3294C800.174 82.4594 799.896 74.4724 799.89 65.5794C799.877 46.4964 799.418 43.0214 796.457 39.5754C793.262 35.8564 789.901 34.9064 780.086 34.9484C772.781 34.9784 770.527 35.4064 765.901 37.6394ZM300.901 38.4364C300.901 39.2744 301.973 40.3684 303.283 40.8664C306.784 42.1974 308.831 45.5284 316.214 61.9114C317.577 64.9364 321.908 74.5344 325.839 83.2404C330.87 94.3844 332.791 99.7124 332.327 101.24C330.946 105.789 324.717 117.911 323.759 117.911C323.208 117.911 320.805 116.767 318.42 115.369C313.347 112.396 309.938 112.777 306.885 116.658C304.35 119.881 304.365 122.958 306.929 125.71C309.46 128.427 312.857 129.314 318.06 128.617C322.626 128.004 326.004 125.269 329.432 119.411C332.241 114.61 348.801 75.4134 355.415 57.9114C358.013 51.0364 360.789 44.6684 361.585 43.7604C362.381 42.8524 364.577 41.8194 366.466 41.4654C368.843 41.0194 369.901 40.2754 369.901 39.0504C369.901 37.4364 368.736 37.2974 356.692 37.4734C347.225 37.6114 343.366 38.0174 343.07 38.9044C342.532 40.5194 344.746 41.8764 347.951 41.8964C351.026 41.9144 352.891 43.5874 352.929 46.3614C352.963 48.9034 341.829 78.9114 340.852 78.9114C339.648 78.9114 324.695 44.8914 325.256 43.4294C325.546 42.6744 327.047 41.9104 328.592 41.7334C330.62 41.5014 331.49 40.7864 331.721 39.1614L332.04 36.9114H316.471C303.185 36.9114 300.901 37.1354 300.901 38.4364ZM810.901 38.4364C810.901 39.2744 811.914 40.3484 813.151 40.8214C814.388 41.2944 816.131 42.5214 817.023 43.5464C818.475 45.2164 826.901 62.2014 826.901 63.4594C826.901 63.7394 828.419 67.2184 830.274 71.1894C837.997 87.7264 842.901 98.9045 842.901 99.9705C842.901 101.754 834.785 117.911 833.888 117.911C833.447 117.911 830.877 116.765 828.179 115.365C822.644 112.494 819.373 112.971 816.502 117.07C812.383 122.951 817.058 128.911 825.788 128.911C835.703 128.911 837.329 126.385 855.713 82.4114C858.472 75.8114 863.075 64.2164 865.941 56.6444L871.153 42.8764L875.527 41.7754C878.563 41.0104 879.901 40.1494 879.901 38.9594C879.901 37.4234 878.543 37.2534 866.865 37.3284C854.423 37.4074 853.842 37.5024 854.115 39.4114C854.315 40.8074 855.307 41.5134 857.401 41.7494C861.283 42.1874 862.901 43.5884 862.901 46.5084C862.901 49.3044 851.977 78.9114 850.945 78.9114C850.552 78.9114 847.634 73.1734 844.459 66.1614C841.284 59.1484 837.835 51.5814 836.794 49.3454C834.065 43.4854 834.313 42.0944 838.151 41.7244C840.642 41.4844 841.476 40.8864 841.721 39.1614L842.04 36.9114H826.471C813.185 36.9114 810.901 37.1354 810.901 38.4364ZM410.839 40.8004C417.118 45.2684 419.546 54.1914 418.475 68.8674C417.656 80.0914 416.234 84.4114 412.194 87.9594C405.9 93.4854 394.777 91.0874 390.919 83.3744C388.918 79.3744 388.221 55.4114 389.928 49.3154C392.672 39.5144 403.078 35.2774 410.839 40.8004ZM562.901 40.7544C565.297 42.4984 569.217 51.5914 568.249 53.1574C567.641 54.1404 542.899 54.1434 542.907 53.1614C542.944 48.1014 547.786 40.7864 552.401 38.8164C555.104 37.6624 559.859 38.5394 562.901 40.7544ZM668.78 41.2424C671.436 43.6634 673.901 48.7844 673.901 51.8794C673.901 53.8144 673.301 53.9114 661.27 53.9114H648.639L649.224 50.3054C650.931 39.7914 661.71 34.7964 668.78 41.2424ZM1000.9 40.7624C1003.84 42.9134 1005.96 46.8604 1006.22 50.6824L1006.4 53.4114L994.015 53.6934L981.629 53.9754L982.18 49.8654C982.778 45.4124 984.718 42.6884 989.401 39.7294C992.853 37.5484 997.017 37.9224 1000.9 40.7624ZM488.63 42.4714C493.473 45.6404 494.366 49.2284 494.726 66.9644L495.063 83.5164L492.45 84.7075C481.761 89.5775 470.394 84.9374 466.163 73.9774C464.012 68.4034 463.827 56.8364 465.811 51.9114C468.077 46.2854 471.732 42.0224 475.187 40.9774C479.126 39.7854 485.63 40.5084 488.63 42.4714ZM80.9008 52.9114C81.7258 53.4444 83.1558 53.8874 84.0798 53.8964C85.0028 53.9044 86.4648 54.6184 87.3298 55.4824C88.6538 56.8074 88.9018 60.2274 88.9068 77.2324C88.9098 88.3314 89.3868 99.1224 89.9678 101.214C91.3978 106.363 95.6708 110.912 99.8878 111.774C102.704 112.35 103.346 112.939 103.348 114.946C103.351 117.308 103.055 117.423 96.2258 117.703L89.0998 117.995L88.7398 130.703C88.4028 142.583 88.1848 143.767 85.3898 148.883C83.7458 151.892 80.8258 155.407 78.9008 156.693C73.6428 160.205 73.8208 161.291 79.5228 160.497C93.8588 158.5 103.66 150.934 106.191 139.911C106.507 138.536 106.889 119.705 107.04 98.0634C107.212 73.2834 107.7 57.9504 108.357 56.6474C108.931 55.5094 110.976 54.0134 112.901 53.3214C115.946 52.2274 113.996 52.0554 97.9008 52.0024C85.6138 51.9624 79.9048 52.2674 80.9008 52.9114ZM55.5348 72.7864C58.4858 80.0924 60.9008 86.2604 60.9008 86.4914C60.9008 86.7224 55.4528 86.9114 48.7938 86.9114C39.4808 86.9114 36.8138 86.6234 37.2378 85.6614C37.5408 84.9744 40.1768 78.6774 43.0948 71.6684C46.0128 64.6604 48.7988 59.0554 49.2848 59.2134C49.7708 59.3714 52.5838 65.4794 55.5348 72.7864ZM784.901 71.8464C784.901 80.4954 783.831 83.3734 779.676 85.9074C769.382 92.1834 762.08 82.2534 770.299 73.1554C773.551 69.5564 781.016 64.9544 783.651 64.9254C784.532 64.9154 784.901 66.9574 784.901 71.8464ZM494.901 135.579C494.901 136.221 496.589 137.571 498.651 138.579L502.401 140.411V161.879V183.348L498.151 184.188C495.592 184.694 493.901 185.582 493.901 186.419C493.901 187.568 498.222 187.817 518.762 187.855L543.624 187.9L544.254 182.655C545.207 174.719 545.057 172.911 543.448 172.911C542.649 172.911 541.237 174.508 540.31 176.461C537.658 182.05 532.677 184.05 522.287 183.699L513.743 183.411L513.858 162.007C513.922 150.234 514.205 140.229 514.487 139.772C514.769 139.316 516.44 138.569 518.2 138.113C519.961 137.657 521.401 136.746 521.401 136.089C521.401 135.235 517.623 134.825 508.151 134.653C498.577 134.478 494.9 134.735 494.901 135.579ZM605.773 154.011C599.931 154.894 597.571 156.161 594.971 159.813C591.82 164.237 592.194 170.036 595.901 174.258C597.551 176.137 598.901 177.924 598.901 178.229C598.901 178.534 597.106 179.792 594.912 181.025C592.718 182.258 590.656 184.109 590.329 185.138C589.53 187.655 592.345 191.733 595.414 192.504C598.819 193.358 598.535 194.28 594.404 195.774C588.739 197.822 588.32 203.175 593.556 206.603C595.817 208.083 598.41 208.411 607.859 208.411C618.052 208.411 619.819 208.151 622.979 206.186C628.932 202.483 630.572 196.305 626.856 191.58C624.239 188.254 619.35 186.924 609.716 186.917C600.763 186.91 596.652 185.725 597.541 183.406C598.573 180.717 603.174 179.004 607.724 179.614C612.827 180.299 619.574 177.953 623 174.304C624.893 172.288 625.386 170.707 625.328 166.829C625.252 161.69 625.719 161.208 629.052 162.992C631.391 164.244 631.426 164.22 632.219 160.903C633.225 156.69 631.816 155.588 627.061 156.868C623.717 157.768 622.505 157.699 620.668 156.501C617.262 154.28 610.963 153.227 605.773 154.011ZM647.401 154.407C642.69 156.066 638.284 160.91 636.709 166.163C635.131 171.422 637.075 179.746 640.689 183.207C649.388 191.54 664.284 190.5 670.294 181.141C680.335 165.506 665.403 148.069 647.401 154.407ZM689.216 153.761C683.173 155.559 679.335 163.117 681.967 168.035C683.966 171.77 685.02 172.451 692.847 175.06C701.51 177.947 703.017 179.559 700.559 183.31C699.206 185.375 698.052 185.911 694.955 185.911C690.726 185.911 685.522 182.442 684.387 178.867C683.326 175.523 680.901 176.519 680.901 180.3C680.901 185.978 683.357 187.906 691.452 188.58C702.051 189.463 707.901 185.669 707.901 177.911C707.901 171.796 704.086 168.676 693.267 165.941C688.239 164.67 686.472 162.755 687.297 159.468C687.756 157.641 688.803 156.832 691.322 156.36C696.081 155.467 697.98 156.343 701.216 160.925C702.764 163.117 704.452 164.911 704.966 164.911C706.125 164.911 706.177 157.895 705.032 156.089C703.492 153.661 694.165 152.288 689.216 153.761ZM557.495 156.177C552.753 158.889 549.606 162.908 550.063 165.667C550.385 167.613 550.575 167.64 554.09 166.228C556.825 165.129 557.945 163.989 558.421 161.818C559.288 157.874 561.453 155.911 564.937 155.911C568.574 155.911 570.117 158.566 569.707 164.115C569.403 168.211 569.347 168.265 562.401 171.138C551.699 175.563 547.014 182.093 551.651 186.122C555.645 189.592 564.106 188.946 568.48 184.837L570.865 182.596L572.956 185.253C574.298 186.96 576.004 187.906 577.724 187.896C581.233 187.876 582.555 186.952 583.814 183.641C584.653 181.432 584.57 180.911 583.376 180.911C582.565 180.911 581.901 181.399 581.901 181.994C581.901 182.59 581.339 182.892 580.651 182.664C579.779 182.376 579.25 178.54 578.901 169.991C578.437 158.618 578.23 157.593 576.04 155.821C572.569 153.013 562.698 153.202 557.495 156.177ZM613.901 157.911C615.476 159.486 615.901 161.244 615.901 166.188C615.901 174.001 614.164 176.911 609.499 176.911C604.338 176.911 602.401 173.993 602.401 166.218C602.401 160.611 602.72 159.476 604.762 157.823C607.809 155.355 611.38 155.39 613.901 157.911ZM661.301 159.234C663.033 161.563 663.401 163.491 663.401 170.234C663.401 183.489 659.904 188.129 651.871 185.532C647.579 184.145 646.038 180.287 645.957 170.726C645.864 159.713 648.454 155.606 655.174 156.11C658.23 156.338 659.707 157.092 661.301 159.234ZM569.703 176.06C569.456 180.264 568.919 181.567 566.771 183.165C563.023 185.954 559.896 184.781 559.916 180.594C559.925 178.843 560.262 176.905 560.666 176.287C561.505 175.003 567.993 170.92 569.203 170.915C569.645 170.913 569.87 173.228 569.703 176.06ZM620.299 196.046C631.298 201.058 613.419 210.125 601.044 205.811C595.606 203.915 595.574 197.3 600.996 195.783C604.999 194.663 617.641 194.835 620.299 196.046Z" fill="black"/>
</svg>
