<svg width="90" height="90" viewBox="0 0 90 90" fill="none" xmlns="http://www.w3.org/2000/svg">
<path d="M45 90C69.8528 90 90 69.8528 90 45C90 20.1472 69.8528 0 45 0C20.1472 0 0 20.1472 0 45C0 69.8528 20.1472 90 45 90Z" fill="#50B748"/>
<path d="M54.4703 88.938C55.3327 88.7703 56.19 88.5773 57.0411 88.3594C58.4847 87.957 59.9074 87.4828 61.3037 86.9385C62.703 86.397 64.0744 85.7859 65.4126 85.1074C66.7505 84.4259 68.0534 83.6779 69.3164 82.8662C70.5775 82.056 71.7973 81.1834 72.9712 80.2515C74.1481 79.3174 75.2774 78.3249 76.355 77.2778C77.4296 76.2333 78.4514 75.1357 79.4165 73.9893C80.3839 72.8416 81.2932 71.6463 82.1412 70.4077C82.9882 69.1708 83.7728 67.8924 84.4922 66.5771C85.2112 65.2605 85.8639 63.9087 86.4478 62.5269C87.0331 61.1448 87.5489 59.7344 87.9932 58.3008C88.3732 57.046 88.6982 55.7753 88.9673 54.4922L62.2339 27.7588C57.4667 22.9914 51.2412 20.6104 45.0074 20.6104C38.7732 20.6104 32.5335 22.991 27.7662 27.7588C18.2314 37.2935 18.2314 52.6991 27.7662 62.2339L54.4703 88.938Z" fill="#10A711"/>
<path d="M45.0033 20.6143C51.2375 20.6143 57.4699 22.9953 62.2372 27.7627C71.7719 37.2974 71.7719 52.703 62.2372 62.2378C52.7025 71.7725 37.2969 71.7725 27.7621 62.2378C18.2274 52.703 18.2274 37.2974 27.7621 27.7627C32.5295 22.9953 38.7692 20.6143 45.0033 20.6143ZM56.1069 37.4966C55.7517 37.5291 55.4067 37.6656 55.1254 37.8848L41.4291 48.1606L35.079 41.8105C33.7014 40.3757 30.9928 43.0843 32.4277 44.4619L39.9277 51.9619C40.5583 52.5915 41.6598 52.6706 42.3739 52.1377L57.3739 40.8877C58.6364 39.9688 57.8586 37.5189 56.2973 37.4966C56.2339 37.4933 56.1703 37.4933 56.1069 37.4966L56.1069 37.4966Z" fill="white"/>
</svg>
